<!DOCTYPE svg PUBLIC "-//W3C//DTD SVG 1.1//EN" "http://www.w3.org/Graphics/SVG/1.1/DTD/svg11.dtd">
<!-- Uploaded to: SVG Repo, www.svgrepo.com, Transformed by: SVG Repo Mixer Tools -->
<svg fill="#000000" width="800px" height="800px" viewBox="0 0 32 32" version="1.1" xmlns="http://www.w3.org/2000/svg">
<g id="SVGRepo_bgCarrier" stroke-width="0"/>
<g id="SVGRepo_tracerCarrier" stroke-linecap="round" stroke-linejoin="round"/>
<g id="SVGRepo_iconCarrier"> <title>award</title> <path d="M28.211 26.834l-3.989-6.681c1.877-2.005 3.029-4.708 3.029-7.68 0-6.213-5.037-11.251-11.251-11.251s-11.251 5.037-11.251 11.251c0 2.945 1.132 5.626 2.984 7.631l-0.007-0.008-4.023 6.739c-0.066 0.11-0.106 0.242-0.106 0.384 0 0.158 0.049 0.304 0.132 0.425l-0.002-0.003c0.139 0.199 0.367 0.327 0.625 0.327 0.041 0 0.081-0.003 0.12-0.009l-0.004 0.001 3-0.49 1.095 2.803c0.105 0.264 0.349 0.452 0.639 0.474l0.003 0 0.057 0.002c0.276-0 0.517-0.149 0.647-0.371l0.002-0.004 3.946-6.835c0.641 0.134 1.378 0.21 2.133 0.21 0.733 0 1.449-0.072 2.142-0.21l-0.070 0.012 3.939 6.821c0.133 0.225 0.374 0.374 0.65 0.375h0l0.057-0.002c0.293-0.023 0.537-0.211 0.641-0.47l0.002-0.005 1.094-2.803 3 0.49c0.037 0.006 0.079 0.010 0.122 0.010 0.414 0 0.75-0.336 0.75-0.75 0-0.142-0.040-0.275-0.108-0.388l0.002 0.003zM9.394 28.273l-0.748-1.914c-0.114-0.281-0.384-0.476-0.701-0.476-0.042 0-0.083 0.003-0.123 0.010l0.004-0.001-2.007 0.328 3.016-5.054c1 0.83 2.171 1.498 3.446 1.944l0.079 0.024zM6.25 12.5c0-5.385 4.365-9.75 9.75-9.75s9.75 4.365 9.75 9.75c0 5.385-4.365 9.75-9.75 9.75v0c-5.382-0.006-9.744-4.368-9.75-9.749v-0.001zM24.088 25.891c-0.037-0.006-0.080-0.010-0.123-0.010-0.316 0-0.586 0.195-0.695 0.472l-0.002 0.005-0.746 1.914-2.952-5.112c1.358-0.462 2.532-1.124 3.556-1.964l-0.020 0.016 2.99 5.007zM16 5.25c-4.004 0-7.25 3.246-7.25 7.25s3.246 7.25 7.25 7.25c4.004 0 7.25-3.246 7.25-7.25v0c-0.004-4.002-3.248-7.246-7.25-7.25h-0zM16 18.25c-3.176 0-5.75-2.574-5.75-5.75s2.574-5.75 5.75-5.75c3.176 0 5.75 2.574 5.75 5.75v0c-0.003 3.174-2.576 5.747-5.75 5.75h-0zM18.666 11.151h-1.492l-0.461-1.417c-0.124-0.276-0.396-0.464-0.713-0.464s-0.589 0.189-0.711 0.459l-0.002 0.005-0.461 1.417h-1.491c-0.414 0-0.75 0.336-0.75 0.75 0 0.248 0.12 0.468 0.306 0.605l0.002 0.001 1.207 0.877-0.461 1.417c-0.024 0.069-0.037 0.15-0.037 0.233 0 0.414 0.336 0.749 0.749 0.749 0.166 0 0.319-0.054 0.443-0.145l-0.002 0.001 1.207-0.876 1.207 0.876c0.122 0.089 0.275 0.143 0.44 0.143 0.414 0 0.75-0.336 0.75-0.75 0-0.083-0.013-0.162-0.038-0.237l0.002 0.005-0.462-1.417 1.208-0.877c0.188-0.138 0.308-0.358 0.308-0.606 0-0.414-0.335-0.75-0.75-0.75h-0zM16.269 13.138c-0.080-0.032-0.172-0.050-0.269-0.050s-0.189 0.018-0.274 0.052l0.005-0.002c0.001-0.012 0.001-0.026 0.001-0.040 0-0.18-0.063-0.345-0.169-0.473l0.001 0.001c0.183-0.050 0.335-0.162 0.434-0.313l0.002-0.003c0.101 0.153 0.252 0.266 0.43 0.314l0.005 0.001c-0.105 0.128-0.168 0.292-0.168 0.472 0 0.014 0 0.028 0.001 0.041l-0-0.002z"/> </g>
</svg>