<?xml version="1.0" encoding="iso-8859-1"?>
<!-- Uploaded to: SVG Repo, www.svgrepo.com, Generator: SVG Repo Mixer Tools -->
<svg height="800px" width="800px" version="1.1" id="Capa_1" xmlns="http://www.w3.org/2000/svg" xmlns:xlink="http://www.w3.org/1999/xlink" 
	 viewBox="0 0 334.145 334.145" xml:space="preserve">
<g>
	<path style="fill:#010002;" d="M238.549,16.114c-32.293,0-57.652,23.73-71.495,40.443c-13.986-16.761-39.429-40.443-71.465-40.443
		C42.884,16.114,0,55.936,0,104.883c0,22.674,9.219,44.232,25.735,60.48l10.8,10.168c37.913,35.598,65.146,68.87,83.548,91.359
		c7.948,9.72,14.231,17.393,19.661,23.247c7.614,8.198,12.65,13.622,16.361,16.928l12.28,10.967l11.958-11.319
		c3.097-2.936,6.981-7.292,12.853-13.879c4.612-5.173,9.941-11.91,16.683-20.443c19.201-24.279,48.212-60.981,93.322-102.129
		l0.424-0.436c19.691-17.113,30.521-40.151,30.521-64.943C334.145,55.936,291.261,16.114,238.549,16.114z M295.432,161.132
		l-0.286,0.304C233.8,217.4,201.585,265.469,184.275,284.879c-5.686,6.379-9.446,10.591-12.155,13.163l-3.98,3.771l-4.093-3.652
		c-3.318-2.954-8.222-8.246-15.657-16.254c-18.384-19.792-52.592-68.577-111.413-122.219l-1.122-1.086l-0.03,0.036l-1.492-1.551
		c-0.579-0.567-1.074-1.181-1.629-1.76l-1.181-1.158l0.072-0.042c-12.626-13.76-19.661-31.105-19.661-49.245
		c0-42.371,37.532-76.835,83.661-76.835c36.088,0,63.571,36.637,71.131,47.866l0.889-0.209c7.357-11.021,34.835-47.657,70.94-47.657
		c46.124,0,83.656,34.465,83.656,76.835C322.211,126.322,312.7,146.287,295.432,161.132z"/>
	<polygon style="fill:#010002;" points="35.885,158.573 35.956,158.513 35.944,158.501 	"/>
	<path style="fill:#010002;" d="M157.132,273.793c4.362,4.702,7.966,8.58,10.758,11.456c2.035-2.208,4.529-5.006,7.476-8.312
		c17.453-19.571,49.931-67.945,111.437-124.033l0.638-0.65c14.732-12.56,22.835-29.387,22.835-47.371
		c0-35.789-32.179-64.902-71.728-64.902c-23.999,0-47.371,22.006-61.244,42.597c-2.154,3.228-5.991,5.161-10.239,5.161
		s-8.079-1.933-10.251-5.173c-13.861-20.58-37.227-42.586-61.226-42.586c-39.548,0-71.722,29.112-71.722,64.902
		c0,16.134,6.671,31.607,18.772,43.63l2.369,2.357C104.199,204.846,138.634,253.869,157.132,273.793z M95.595,51.915
		c19.333,0,39.733,20.102,51.309,37.293c4.392,6.552,11.934,10.466,20.168,10.466c8.246,0,15.782-3.908,20.138-10.43
		c11.594-17.22,32-37.329,51.339-37.329c32.967,0,59.794,23.76,59.794,52.968c0,14.44-6.617,28.044-18.641,38.295l-0.388,0.334
		l-0.782,0.794c-46.53,42.466-76.394,80.201-96.162,105.19c-5.931,7.494-10.734,13.557-14.684,18.115
		c-0.585-0.627-1.187-1.271-1.802-1.939c-4.857-5.233-10.955-12.68-18.682-22.107c-20.174-24.637-50.665-61.865-94.157-101.526
		l-0.609-0.555v0.006l-1.211-1.265c-9.953-9.792-15.424-22.34-15.424-35.342C35.801,75.675,62.622,51.915,95.595,51.915z"/>
	<path style="fill:#010002;" d="M31.511,154.163l1.181,1.158c-0.376-0.394-0.74-0.8-1.11-1.205L31.511,154.163z"/>
</g>
</svg>